<?xml version="1.0" encoding="UTF-8" standalone="no"?>
<!-- Created with Inkscape (http://www.inkscape.org/) -->
<svg
   xmlns:svg="http://www.w3.org/2000/svg"
   xmlns="http://www.w3.org/2000/svg"
   version="1.0"
   width="600"
   height="583.94"
   id="svg10917">
  <defs
     id="defs3" />
  <g
     id="g1876">
    <path
       d="M 300.17163,16.631226 L 296.37694,19.187249 C 287.44758,25.252893 265.15892,36.577975 255.20931,40.125624 C 218.17841,53.329389 176.11299,53.77028 141.08159,41.281087 C 131.41923,37.836323 114.62876,29.21842 106.57859,23.563999 L 100.80684,19.502375 L 64.677547,54.971562 C 19.487227,99.334896 24.307232,94.096615 26.060982,96.708258 C 26.855883,97.892029 30.101789,102.62506 33.267707,107.21247 C 43.574507,122.14701 54.63441,143.99683 59.76677,159.59341 L 62.094606,166.63123 L 300.55429,166.35111 L 539.01397,166.071 L 541.85202,157.56261 C 547.55125,140.39781 556.63068,122.46035 568.22353,105.5318 C 572.40018,99.432836 575.42128,94.076459 574.95193,93.627024 C 572.78142,91.548657 504.21926,24.354959 501.95993,22.093411 L 499.37699,19.537389 L 493.76467,23.528985 C 490.66831,25.727203 483.51411,29.926467 477.88436,32.877726 C 438.75588,53.389918 390.05543,56.051907 345.38905,40.125624 C 335.53092,36.610601 313.67264,25.538496 304.06199,19.187249 L 300.17163,16.631226 z "
       style="fill:white;stroke:none;stroke-opacity:1"
       id="path1907" />
    <path
       d="M 66.742306,176.153 L 67.286996,178.97257 C 69.292236,189.10205 70.283882,205.10342 69.75412,218.83105 C 69.03635,237.43058 66.001066,253.05488 59.340932,272.49903 C 54.722361,285.98285 51.809898,292.85827 38.770879,321.00846 C 25.334473,350.0166 18.779923,375.68655 20.187343,393.6765 C 22.786177,426.8956 35.181854,453.90562 59.693378,479.76954 C 72.719006,493.51379 87.793781,504.32667 103.74918,511.32951 C 116.98814,517.14013 128.0373,519.52972 166.03606,524.8186 C 186.49953,527.66676 209.96393,530.94402 218.16609,532.09181 C 249.77813,536.51519 277.13909,546.07973 294.48675,558.78161 C 297.48338,560.97568 300.04361,562.79362 300.15793,562.81872 C 300.27223,562.84395 303.25987,560.8428 306.82237,558.36508 C 319.91949,549.25577 337.15005,541.8765 356.51732,537.09014 C 363.73107,535.30744 390.05002,531.0846 419.89358,526.90123 C 447.97577,522.9646 475.0565,518.83585 480.06579,517.73763 C 492.36985,515.04004 504.8631,510.32885 511.56168,505.88261 C 531.25753,492.80923 554.5911,466.88211 565.64618,445.74244 C 576.39891,425.18089 580.71619,406.3656 579.90424,383.90412 C 579.11672,362.11867 573.56653,343.82589 557.604,310.40303 C 538.25251,269.88436 530.65959,242.09117 530.68991,212.03845 C 530.70236,199.73541 531.85925,185.60367 533.4454,178.45992 L 533.95805,176.153 L 300.35018,176.153 L 66.742306,176.153 z "
       style="fill:white;stroke:none;stroke-opacity:1"
       id="path10915" />
    <path
       d="M 544.53316,216.05434 C 544.53261,168.36958 560.34845,130.16654 591.98072,101.44509 L 600.00002,94.160885 L 591.98072,86.854406 L 495.61539,1.4487962 L 489.06629,7.2850689 C 468.14137,25.774583 439.1828,35.019051 402.19047,35.018502 C 369.10304,35.019051 337.23376,24.801872 306.58253,4.3669325 L 300.01115,0.00086590648 L 294.17488,4.3669325 C 266.90897,24.801872 235.03226,35.019051 198.54465,35.018502 C 163.512,35.019051 134.56085,25.774583 111.69111,7.2850689 L 104.38463,1.4487962 L 0,94.160885 L 8.0193061,101.44509 C 40.141042,130.64176 56.201914,168.8448 56.20197,216.05434 C 56.201914,236.48906 48.052673,264.83506 31.754224,301.09239 C 15.455712,337.3503 7.3064716,365.45126 7.3064789,385.39535 C 7.3064716,420.91807 19.350269,452.91358 43.437908,481.38199 C 67.52546,509.8506 97.330517,527.9757 132.85317,535.75734 C 184.91907,542.08372 213.14255,545.73696 217.52368,546.71706 C 251.59063,553.04343 276.89597,563.50564 293.43977,578.10373 L 300.01115,583.94 L 306.58253,578.10373 C 323.12573,563.50564 348.42365,553.04343 382.47635,546.71706 C 386.85688,545.73696 415.08778,542.08372 467.16913,535.75734 C 502.69118,527.9757 532.61505,509.97312 556.94081,481.74954 C 581.26545,453.52617 593.42806,421.40814 593.42865,385.39535 C 593.42806,365.45126 585.27881,337.3503 568.9809,301.09239 C 552.68185,264.83506 544.53261,236.48906 544.53316,216.05434 L 544.53316,216.05434 z M 29.916467,94.873712 L 105.11974,27.734299 C 131.88033,46.223793 163.02193,55.468261 198.54465,55.467733 C 235.03226,55.468261 268.85439,45.251082 300.01115,24.816163 C 331.64253,45.251082 365.70227,55.468261 402.19047,55.467733 C 437.22252,55.468261 468.12652,46.223793 494.90256,27.734299 L 570.08356,94.873712 C 553.53947,113.85321 541.36945,135.2677 533.57344,159.11726 L 67.161688,159.11726 C 58.889864,135.2677 46.474802,113.85321 29.916467,94.873712 L 29.916467,94.873712 z M 541.61502,467.88282 C 526.52632,485.40659 513.38358,497.33158 502.18677,503.65784 C 493.43929,508.51405 480.30398,512.40489 462.78079,515.33038 C 459.37955,515.82052 431.40111,519.71137 378.84538,527.00293 C 346.23319,531.3839 319.95514,541.36347 300.01115,556.94167 C 280.05171,541.36347 254.01127,531.3839 221.88974,527.00293 C 202.92537,524.5675 174.70189,520.67665 137.21924,515.33038 C 107.05763,509.9694 81.147128,494.63621 59.487658,469.33075 C 37.828068,444.02553 26.998303,416.04709 26.99833,385.39535 C 26.998303,366.41654 34.542384,341.8463 49.630594,311.68456 C 67.154196,276.14746 75.916021,244.27075 75.916097,216.05434 C 75.916021,203.8921 74.698276,191.7295 72.262858,179.56649 L 527.73717,179.56649 C 525.30115,191.7295 524.0834,203.8921 524.08393,216.05434 C 524.0834,243.30547 533.09026,275.18218 551.10453,311.68456 C 565.70207,340.88102 573.00112,365.45126 573.00169,385.39535 C 573.00112,415.57187 562.53891,443.06767 541.61502,467.88282 L 541.61502,467.88282 z "
       style="font-size:729.93505859px;font-style:normal;font-variant:normal;font-weight:bold;font-stretch:normal;text-align:start;line-height:125%;writing-mode:lr-tb;text-anchor:start;fill:black;fill-opacity:1;stroke:none;stroke-width:1px;stroke-linecap:butt;stroke-linejoin:miter;stroke-opacity:1;font-family:USHighwaysOldStyleBCBA"
       id="text1871" />
  </g>
</svg>
